<?xml version="1.0" encoding="iso-8859-1"?>
<!-- Generator: Adobe Illustrator 19.0.0, SVG Export Plug-In . SVG Version: 6.00 Build 0)  -->
<svg xmlns="http://www.w3.org/2000/svg" xmlns:xlink="http://www.w3.org/1999/xlink" version="1.1" id="Layer_1" x="0px" y="0px" viewBox="0 0 301.328 301.328" style="enable-background:new 0 0 301.328 301.328;" xml:space="preserve" width="512px" height="512px">
<g>
	<g>
		<path d="M150.664,0C68.698,0,0,66.354,0,150.664c0,84.405,68.794,150.664,150.664,150.664    c83.297,0,150.664-67.577,150.664-150.664C301.328,66.23,232.518,0,150.664,0z M45.619,65.315    c17.996,22.115,28.482,49.206,30.08,77.7H15.523C17.127,114.406,27.664,87.366,45.619,65.315z M15.523,158.314h60.174    c-1.597,28.494-12.084,55.585-30.08,77.7C27.567,213.85,17.119,186.786,15.523,158.314z M143.014,285.803    c-32.588-1.86-63.628-15.545-86.984-38.374c21.107-25.154,33.34-56.319,34.99-89.114h51.993V285.803z M143.014,143.014H91.021    c-1.65-32.794-13.883-63.96-34.99-89.114c23.353-22.829,54.395-36.513,86.984-38.374V143.014z M285.806,143.014h-60.174    c1.596-28.498,12.087-55.588,30.087-77.7C273.7,87.402,284.204,114.437,285.806,143.014z M158.314,15.525    c32.585,1.862,63.63,15.545,86.992,38.374c-21.112,25.149-33.348,56.315-34.998,89.114h-51.994V15.525z M158.314,285.803V158.314    h51.994c1.65,32.798,13.886,63.965,34.998,89.114C221.945,270.257,190.9,283.941,158.314,285.803z M255.719,236.014    c-18-22.112-28.49-49.203-30.088-77.7h60.174C284.214,186.714,273.827,213.76,255.719,236.014z" fill="#FFFFFF"/>
	</g>
</g>
<g>
</g>
<g>
</g>
<g>
</g>
<g>
</g>
<g>
</g>
<g>
</g>
<g>
</g>
<g>
</g>
<g>
</g>
<g>
</g>
<g>
</g>
<g>
</g>
<g>
</g>
<g>
</g>
<g>
</g>
</svg>
