<?xml version="1.0" encoding="iso-8859-1"?>
<!-- Generator: Adobe Illustrator 18.0.0, SVG Export Plug-In . SVG Version: 6.00 Build 0)  -->
<!DOCTYPE svg PUBLIC "-//W3C//DTD SVG 1.1//EN" "http://www.w3.org/Graphics/SVG/1.1/DTD/svg11.dtd">
<svg xmlns="http://www.w3.org/2000/svg" xmlns:xlink="http://www.w3.org/1999/xlink" version="1.1" id="Capa_1" x="0px" y="0px" viewBox="0 0 337 337" style="enable-background:new 0 0 337 337;" xml:space="preserve" width="512px" height="512px">
<g>
	<path d="M277,170.5c-3.611,0-7.142,0.339-10.579,0.953l-16.69-46.478l2.996-1.287   c2.621-1.126,4.636-3.317,5.539-6.022l19.359-58c1.019-3.05,0.508-6.403-1.372-9.012c-1.879-2.608-4.898-4.154-8.113-4.154h-11   c-5.522,0-10,4.478-10,10c0,4.568,3.063,8.421,7.248,9.616l-13.674,40.965l-7.521,3.23c-4.857,2.087-7.252,7.593-5.465,12.568   l4.137,11.52l-93.692,20.91l-9.611-35.81H131c5.522,0,10-4.478,10-10s-4.478-10-10-10H98c-5.522,0-10,4.478-10,10s4.478,10,10,10   h9.856l11.889,44.297L97.459,183.68C87.185,175.443,74.162,170.5,60,170.5c-33.084,0-60,26.916-60,60s26.916,60,60,60   c29.676,0,54.374-21.661,59.151-50h12.13c3.089,7.343,10.349,12.5,18.815,12.5c11.269,0,20.405-9.135,20.405-20.405   c0-1.91-0.282-3.751-0.773-5.505l75.699-54.928l2.177,6.063C229.355,188.527,217,208.092,217,230.5c0,33.084,26.916,60,60,60   s60-26.916,60-60S310.084,170.5,277,170.5z M153.523,212.501l-10.16-37.857l93.278-20.818l-81.381,59.05   C154.69,212.727,154.112,212.601,153.523,212.501z M134.64,219.298c-0.333,0.387-0.646,0.791-0.95,1.202h-14.539   c-1.337-7.936-4.236-15.343-8.371-21.902l14.769-13.176L134.64,219.298z M60,270.5c-22.056,0-40-17.944-40-40s17.944-40,40-40   c8.221,0,15.869,2.496,22.231,6.765l-28.888,25.773c-3.096,2.762-4.165,7.147-2.687,11.024c1.478,3.876,5.195,6.438,9.344,6.438   h38.734C94.282,257.732,78.604,270.5,60,270.5z M86.23,220.5l9.314-8.31c1.354,2.618,2.437,5.397,3.189,8.31H86.23z M277,270.5   c-22.056,0-40-17.944-40-40c0-13.721,6.947-25.847,17.505-33.055l13.083,36.435c1.465,4.081,5.311,6.623,9.411,6.623   c1.122,0,2.264-0.19,3.38-0.592c5.197-1.866,7.898-7.593,6.031-12.791l-13.087-36.444c1.211-0.111,2.436-0.176,3.676-0.176   c22.056,0,40,17.944,40,40S299.056,270.5,277,270.5z" fill="#FFFFFF"/>
</g>
<g>
</g>
<g>
</g>
<g>
</g>
<g>
</g>
<g>
</g>
<g>
</g>
<g>
</g>
<g>
</g>
<g>
</g>
<g>
</g>
<g>
</g>
<g>
</g>
<g>
</g>
<g>
</g>
<g>
</g>
</svg>
